<svg width="640" height="560" viewBox="0 0 640 560" fill="none" xmlns="http://www.w3.org/2000/svg">
<mask id="mask0" mask-type="alpha" maskUnits="userSpaceOnUse" x="0" y="0" width="640" height="560">
<rect width="640" height="560" fill="white"/>
</mask>
<g mask="url(#mask0)">
<rect width="640" height="560" fill="#767676"/>
<path d="M238.789 237.086C238.581 236.148 238.301 234.866 237.949 233.238L237.07 229.352L236.191 233.238C235.84 234.866 235.56 236.148 235.352 237.086L231.23 254H225.43L218.262 225.68H222.148L225.742 240.113L228.379 250.445L230.938 240.113L234.492 225.68H239.629L243.184 240.113L245.742 250.445L248.379 240.113L251.973 225.68H255.859L248.711 254H242.91L238.789 237.086ZM264.277 237.477H275.957V240.875H264.277V250.602H277.715V254H260.43V225.68H277.285V229.078H264.277V237.477ZM299.59 254H282.812V225.68H286.66V250.602H299.59V254ZM315.391 225.367C316.836 225.367 318.268 225.569 319.688 225.973C321.12 226.363 322.461 226.943 323.711 227.711L322.109 230.836C320.885 230.172 319.733 229.697 318.652 229.41C317.572 229.111 316.484 228.961 315.391 228.961C312.383 228.961 310.059 229.898 308.418 231.773C306.777 233.635 305.957 236.298 305.957 239.762C305.957 243.251 306.764 245.947 308.379 247.848C309.993 249.736 312.292 250.68 315.273 250.68C317.643 250.68 320.059 250.12 322.52 249L323.926 252.281C322.624 252.893 321.191 253.382 319.629 253.746C318.066 254.098 316.562 254.273 315.117 254.273C310.846 254.273 307.585 253.03 305.332 250.543C303.079 248.043 301.953 244.449 301.953 239.762C301.953 236.78 302.487 234.208 303.555 232.047C304.622 229.885 306.159 228.232 308.164 227.086C310.182 225.94 312.591 225.367 315.391 225.367ZM339.57 225.367C343.646 225.367 346.803 226.624 349.043 229.137C351.283 231.637 352.402 235.165 352.402 239.723C352.402 244.436 351.296 248.062 349.082 250.602C346.868 253.128 343.698 254.391 339.57 254.391C335.417 254.391 332.227 253.134 330 250.621C327.786 248.095 326.68 244.462 326.68 239.723C326.68 235.139 327.799 231.604 330.039 229.117C332.279 226.617 335.456 225.367 339.57 225.367ZM339.57 228.961C336.693 228.961 334.492 229.885 332.969 231.734C331.445 233.57 330.684 236.233 330.684 239.723C330.684 243.29 331.452 246.031 332.988 247.945C334.525 249.846 336.719 250.797 339.57 250.797C342.422 250.797 344.603 249.84 346.113 247.926C347.637 245.999 348.398 243.264 348.398 239.723C348.398 236.259 347.637 233.603 346.113 231.754C344.603 229.892 342.422 228.961 339.57 228.961ZM382.012 230.328C381.803 231.044 381.348 232.535 380.645 234.801C379.954 237.066 379.368 238.876 378.887 240.23L374.336 253.199H370.488L365.938 240.23C365.404 238.707 364.805 236.852 364.141 234.664C363.477 232.464 363.034 231.018 362.812 230.328L361.621 240.23L359.902 254H356.25L359.863 225.68H364.609L369.727 240.641C369.883 241.148 370.072 241.721 370.293 242.359C370.514 242.997 370.742 243.694 370.977 244.449C371.615 246.48 372.096 247.958 372.422 248.883C372.747 247.945 373.223 246.467 373.848 244.449C374.082 243.707 374.31 243.017 374.531 242.379C374.753 241.728 374.941 241.148 375.098 240.641L380.215 225.68H384.98L388.574 254H384.941L383.223 240.23L382.012 230.328ZM398.066 237.477H409.746V240.875H398.066V250.602H411.504V254H394.219V225.68H411.074V229.078H398.066V237.477ZM415.82 225.191H419.648L419.121 246.637H416.289L415.82 225.191ZM415.898 250.328H419.609V254H415.898V250.328ZM269.141 277.477H280.82V280.875H269.141V290.602H282.578V294H265.293V265.68H282.148V269.078H269.141V277.477ZM295.723 278.727C294.499 276.969 293.034 274.645 291.328 271.754V294H287.676V265.68H290.918L301.406 280.562C302.448 282.034 304.01 284.462 306.094 287.848V265.68H309.727V294H306.484L295.723 278.727ZM313.34 296.969C315.046 296.266 316.491 295.165 317.676 293.668C318.861 292.158 319.453 290.654 319.453 289.156V269.078H313.906V265.68H323.223V289.156C323.223 290.536 322.845 291.93 322.09 293.336C321.348 294.742 320.326 295.999 319.023 297.105C317.734 298.212 316.322 299.033 314.785 299.566L313.34 296.969ZM341.621 265.367C345.697 265.367 348.854 266.624 351.094 269.137C353.333 271.637 354.453 275.165 354.453 279.723C354.453 284.436 353.346 288.062 351.133 290.602C348.919 293.128 345.749 294.391 341.621 294.391C337.467 294.391 334.277 293.134 332.051 290.621C329.837 288.095 328.73 284.462 328.73 279.723C328.73 275.139 329.85 271.604 332.09 269.117C334.329 266.617 337.507 265.367 341.621 265.367ZM341.621 268.961C338.743 268.961 336.543 269.885 335.02 271.734C333.496 273.57 332.734 276.233 332.734 279.723C332.734 283.29 333.503 286.031 335.039 287.945C336.576 289.846 338.77 290.797 341.621 290.797C344.473 290.797 346.654 289.84 348.164 287.926C349.688 285.999 350.449 283.264 350.449 279.723C350.449 276.259 349.688 273.603 348.164 271.754C346.654 269.892 344.473 268.961 341.621 268.961ZM364.121 273.434C364.655 274.449 365.189 275.491 365.723 276.559C366.257 277.626 366.621 278.362 366.816 278.766H367.051C367.233 278.362 367.637 277.548 368.262 276.324C368.9 275.1 369.401 274.137 369.766 273.434L374.043 265.68H378.203L368.809 282.086V294H365V282.086L355.645 265.68H359.844L364.121 273.434ZM228.086 313.434C228.62 314.449 229.154 315.491 229.688 316.559C230.221 317.626 230.586 318.362 230.781 318.766H231.016C231.198 318.362 231.602 317.548 232.227 316.324C232.865 315.1 233.366 314.137 233.73 313.434L238.008 305.68H242.168L232.773 322.086V334H228.965V322.086L219.609 305.68H223.809L228.086 313.434ZM257.188 305.367C261.263 305.367 264.421 306.624 266.66 309.137C268.9 311.637 270.02 315.165 270.02 319.723C270.02 324.436 268.913 328.062 266.699 330.602C264.486 333.128 261.315 334.391 257.188 334.391C253.034 334.391 249.844 333.134 247.617 330.621C245.404 328.095 244.297 324.462 244.297 319.723C244.297 315.139 245.417 311.604 247.656 309.117C249.896 306.617 253.073 305.367 257.188 305.367ZM257.188 308.961C254.31 308.961 252.109 309.885 250.586 311.734C249.062 313.57 248.301 316.233 248.301 319.723C248.301 323.29 249.069 326.031 250.605 327.945C252.142 329.846 254.336 330.797 257.188 330.797C260.039 330.797 262.22 329.84 263.73 327.926C265.254 325.999 266.016 323.264 266.016 319.723C266.016 316.259 265.254 313.603 263.73 311.754C262.22 309.892 260.039 308.961 257.188 308.961ZM297.188 324.488C297.188 327.6 296.211 330.022 294.258 331.754C292.318 333.486 289.603 334.352 286.113 334.352C282.598 334.352 279.876 333.492 277.949 331.773C276.035 330.055 275.078 327.626 275.078 324.488V305.68H278.906V324.488C278.906 326.624 279.499 328.212 280.684 329.254C281.882 330.283 283.691 330.797 286.113 330.797C290.944 330.797 293.359 328.694 293.359 324.488V305.68H297.188V324.488ZM307.871 334H304.023V305.68H312.383C315.69 305.68 318.203 306.396 319.922 307.828C321.654 309.247 322.52 311.305 322.52 314C322.52 315.914 322.057 317.522 321.133 318.824C320.208 320.113 318.867 321.064 317.109 321.676L323.555 334H319.121L313.105 322.359H307.871V334ZM312.383 318.961C316.471 318.961 318.516 317.307 318.516 314C318.516 312.346 318.014 311.116 317.012 310.309C316.009 309.488 314.466 309.078 312.383 309.078H307.871V318.961H312.383ZM346.445 305.367C348.711 305.354 351.055 305.855 353.477 306.871L352.52 310.406C350.098 309.469 348.047 309 346.367 309C344.661 309 343.307 309.332 342.305 309.996C341.302 310.66 340.801 311.585 340.801 312.77C340.801 313.629 340.977 314.345 341.328 314.918C341.693 315.478 342.305 315.986 343.164 316.441C344.023 316.897 345.221 317.353 346.758 317.809C349.505 318.603 351.458 319.651 352.617 320.953C353.776 322.242 354.355 323.993 354.355 326.207C354.355 328.746 353.503 330.738 351.797 332.184C350.091 333.629 347.747 334.352 344.766 334.352C342.201 334.352 339.349 333.688 336.211 332.359L337.363 328.883C339.121 329.573 340.521 330.055 341.562 330.328C342.604 330.589 343.672 330.719 344.766 330.719C346.497 330.719 347.865 330.322 348.867 329.527C349.87 328.72 350.371 327.626 350.371 326.246C350.371 325.361 350.182 324.625 349.805 324.039C349.427 323.453 348.776 322.926 347.852 322.457C346.94 321.988 345.645 321.526 343.965 321.07C341.4 320.38 339.564 319.43 338.457 318.219C337.35 317.008 336.797 315.374 336.797 313.316C336.797 310.803 337.65 308.85 339.355 307.457C341.074 306.064 343.438 305.367 346.445 305.367ZM376.289 309.078H368.008V334H364.16V309.078H355.391V305.68H376.289V309.078ZM380.918 325.797L378.105 334H374.238L383.984 305.68H388.789L398.906 334H395.156L392.227 325.797H380.918ZM386.348 309.645L382.07 322.398H391.035L386.602 309.645H386.348ZM406.289 313.434C406.823 314.449 407.357 315.491 407.891 316.559C408.424 317.626 408.789 318.362 408.984 318.766H409.219C409.401 318.362 409.805 317.548 410.43 316.324C411.068 315.1 411.569 314.137 411.934 313.434L416.211 305.68H420.371L410.977 322.086V334H407.168V322.086L397.812 305.68H402.012L406.289 313.434Z" fill="#DDDDDD"/>
<path d="M-81.2109 -42.9141C-81.4193 -43.8516 -81.6992 -45.1341 -82.0508 -46.7617L-82.9297 -50.6484L-83.8086 -46.7617C-84.1602 -45.1341 -84.4401 -43.8516 -84.6484 -42.9141L-88.7695 -26H-94.5703L-101.738 -54.3203H-97.8516L-94.2578 -39.8867L-91.6211 -29.5547L-89.0625 -39.8867L-85.5078 -54.3203H-80.3711L-76.8164 -39.8867L-74.2578 -29.5547L-71.6211 -39.8867L-68.0273 -54.3203H-64.1406L-71.2891 -26H-77.0898L-81.2109 -42.9141ZM-55.7227 -42.5234H-44.043V-39.125H-55.7227V-29.3984H-42.2852V-26H-59.5703V-54.3203H-42.7148V-50.9219H-55.7227V-42.5234ZM-20.4102 -26H-37.1875V-54.3203H-33.3398V-29.3984H-20.4102V-26ZM-4.60938 -54.6328C-3.16406 -54.6328 -1.73177 -54.431 -0.3125 -54.0273C1.11979 -53.6367 2.46094 -53.0573 3.71094 -52.2891L2.10938 -49.1641C0.885417 -49.8281 -0.266927 -50.3034 -1.34766 -50.5898C-2.42839 -50.8893 -3.51562 -51.0391 -4.60938 -51.0391C-7.61719 -51.0391 -9.94141 -50.1016 -11.582 -48.2266C-13.2227 -46.3646 -14.043 -43.7018 -14.043 -40.2383C-14.043 -36.7487 -13.2357 -34.0534 -11.6211 -32.1523C-10.0065 -30.2643 -7.70833 -29.3203 -4.72656 -29.3203C-2.35677 -29.3203 0.0585938 -29.8802 2.51953 -31L3.92578 -27.7188C2.6237 -27.1068 1.19141 -26.6185 -0.371094 -26.2539C-1.93359 -25.9023 -3.4375 -25.7266 -4.88281 -25.7266C-9.15365 -25.7266 -12.4154 -26.9701 -14.668 -29.457C-16.9206 -31.957 -18.0469 -35.5508 -18.0469 -40.2383C-18.0469 -43.2201 -17.513 -45.7917 -16.4453 -47.9531C-15.3776 -50.1146 -13.8411 -51.7682 -11.8359 -52.9141C-9.81771 -54.0599 -7.40885 -54.6328 -4.60938 -54.6328ZM19.5703 -54.6328C23.6458 -54.6328 26.8034 -53.3763 29.043 -50.8633C31.2826 -48.3633 32.4023 -44.8346 32.4023 -40.2773C32.4023 -35.5638 31.2956 -31.9375 29.082 -29.3984C26.8685 -26.8724 23.6979 -25.6094 19.5703 -25.6094C15.4167 -25.6094 12.2266 -26.8659 10 -29.3789C7.78646 -31.9049 6.67969 -35.5378 6.67969 -40.2773C6.67969 -44.8607 7.79948 -48.3958 10.0391 -50.8828C12.2786 -53.3828 15.4557 -54.6328 19.5703 -54.6328ZM19.5703 -51.0391C16.6927 -51.0391 14.4922 -50.1146 12.9688 -48.2656C11.4453 -46.4297 10.6836 -43.7669 10.6836 -40.2773C10.6836 -36.7096 11.4518 -33.9688 12.9883 -32.0547C14.5247 -30.1536 16.7188 -29.2031 19.5703 -29.2031C22.4219 -29.2031 24.6029 -30.1602 26.1133 -32.0742C27.6367 -34.0013 28.3984 -36.7357 28.3984 -40.2773C28.3984 -43.7409 27.6367 -46.3971 26.1133 -48.2461C24.6029 -50.1081 22.4219 -51.0391 19.5703 -51.0391ZM62.0117 -49.6719C61.8034 -48.9557 61.3477 -47.4648 60.6445 -45.1992C59.9544 -42.9336 59.3685 -41.1237 58.8867 -39.7695L54.3359 -26.8008H50.4883L45.9375 -39.7695C45.4036 -41.293 44.8047 -43.1484 44.1406 -45.3359C43.4766 -47.5365 43.0339 -48.9818 42.8125 -49.6719L41.6211 -39.7695L39.9023 -26H36.25L39.8633 -54.3203H44.6094L49.7266 -39.3594C49.8828 -38.8516 50.0716 -38.2786 50.293 -37.6406C50.5143 -37.0026 50.7422 -36.306 50.9766 -35.5508C51.6146 -33.5195 52.0964 -32.0417 52.4219 -31.1172C52.7474 -32.0547 53.2227 -33.5326 53.8477 -35.5508C54.082 -36.293 54.3099 -36.9831 54.5312 -37.6211C54.7526 -38.2721 54.9414 -38.8516 55.0977 -39.3594L60.2148 -54.3203H64.9805L68.5742 -26H64.9414L63.2227 -39.7695L62.0117 -49.6719ZM78.0664 -42.5234H89.7461V-39.125H78.0664V-29.3984H91.5039V-26H74.2188V-54.3203H91.0742V-50.9219H78.0664V-42.5234ZM95.8203 -54.8086H99.6484L99.1211 -33.3633H96.2891L95.8203 -54.8086ZM95.8984 -29.6719H99.6094V-26H95.8984V-29.6719ZM-50.8594 -2.52344H-39.1797V0.875H-50.8594V10.6016H-37.4219V14H-54.707V-14.3203H-37.8516V-10.9219H-50.8594V-2.52344ZM-24.2773 -1.27344C-25.5013 -3.03125 -26.9661 -5.35547 -28.6719 -8.24609V14H-32.3242V-14.3203H-29.082L-18.5938 0.5625C-17.5521 2.03385 -15.9896 4.46224 -13.9062 7.84766V-14.3203H-10.2734V14H-13.5156L-24.2773 -1.27344ZM-6.66016 16.9688C-4.95443 16.2656 -3.50911 15.1654 -2.32422 13.668C-1.13932 12.1576 -0.546875 10.6536 -0.546875 9.15625V-10.9219H-6.09375V-14.3203H3.22266V9.15625C3.22266 10.5365 2.84505 11.9297 2.08984 13.3359C1.34766 14.7422 0.325521 15.9987 -0.976562 17.1055C-2.26562 18.2122 -3.67839 19.0326 -5.21484 19.5664L-6.66016 16.9688ZM21.6211 -14.6328C25.6966 -14.6328 28.8542 -13.3763 31.0938 -10.8633C33.3333 -8.36328 34.4531 -4.83464 34.4531 -0.277344C34.4531 4.4362 33.3464 8.0625 31.1328 10.6016C28.9193 13.1276 25.7487 14.3906 21.6211 14.3906C17.4674 14.3906 14.2773 13.1341 12.0508 10.6211C9.83724 8.09505 8.73047 4.46224 8.73047 -0.277344C8.73047 -4.86068 9.85026 -8.39583 12.0898 -10.8828C14.3294 -13.3828 17.5065 -14.6328 21.6211 -14.6328ZM21.6211 -11.0391C18.7435 -11.0391 16.543 -10.1146 15.0195 -8.26562C13.4961 -6.42969 12.7344 -3.76693 12.7344 -0.277344C12.7344 3.29036 13.5026 6.03125 15.0391 7.94531C16.5755 9.84635 18.7695 10.7969 21.6211 10.7969C24.4727 10.7969 26.6536 9.83984 28.1641 7.92578C29.6875 5.9987 30.4492 3.26432 30.4492 -0.277344C30.4492 -3.74089 29.6875 -6.39714 28.1641 -8.24609C26.6536 -10.1081 24.4727 -11.0391 21.6211 -11.0391ZM44.1211 -6.56641C44.6549 -5.55078 45.1888 -4.50911 45.7227 -3.44141C46.2565 -2.3737 46.6211 -1.63802 46.8164 -1.23438H47.0508C47.2331 -1.63802 47.6367 -2.45182 48.2617 -3.67578C48.8997 -4.89974 49.401 -5.86328 49.7656 -6.56641L54.043 -14.3203H58.2031L48.8086 2.08594V14H45V2.08594L35.6445 -14.3203H39.8438L44.1211 -6.56641ZM-91.9141 33.4336C-91.3802 34.4492 -90.8464 35.4909 -90.3125 36.5586C-89.7786 37.6263 -89.4141 38.362 -89.2188 38.7656H-88.9844C-88.8021 38.362 -88.3984 37.5482 -87.7734 36.3242C-87.1354 35.1003 -86.6341 34.1367 -86.2695 33.4336L-81.9922 25.6797H-77.832L-87.2266 42.0859V54H-91.0352V42.0859L-100.391 25.6797H-96.1914L-91.9141 33.4336ZM-62.8125 25.3672C-58.737 25.3672 -55.5794 26.6237 -53.3398 29.1367C-51.1003 31.6367 -49.9805 35.1654 -49.9805 39.7227C-49.9805 44.4362 -51.0872 48.0625 -53.3008 50.6016C-55.5143 53.1276 -58.6849 54.3906 -62.8125 54.3906C-66.9661 54.3906 -70.1562 53.1341 -72.3828 50.6211C-74.5964 48.0951 -75.7031 44.4622 -75.7031 39.7227C-75.7031 35.1393 -74.5833 31.6042 -72.3438 29.1172C-70.1042 26.6172 -66.9271 25.3672 -62.8125 25.3672ZM-62.8125 28.9609C-65.6901 28.9609 -67.8906 29.8854 -69.4141 31.7344C-70.9375 33.5703 -71.6992 36.2331 -71.6992 39.7227C-71.6992 43.2904 -70.931 46.0312 -69.3945 47.9453C-67.8581 49.8464 -65.6641 50.7969 -62.8125 50.7969C-59.9609 50.7969 -57.7799 49.8398 -56.2695 47.9258C-54.7461 45.9987 -53.9844 43.2643 -53.9844 39.7227C-53.9844 36.2591 -54.7461 33.6029 -56.2695 31.7539C-57.7799 29.8919 -59.9609 28.9609 -62.8125 28.9609ZM-22.8125 44.4883C-22.8125 47.6003 -23.7891 50.0221 -25.7422 51.7539C-27.6823 53.4857 -30.3971 54.3516 -33.8867 54.3516C-37.4023 54.3516 -40.1237 53.4922 -42.0508 51.7734C-43.9648 50.0547 -44.9219 47.6263 -44.9219 44.4883V25.6797H-41.0938V44.4883C-41.0938 46.6237 -40.5013 48.2122 -39.3164 49.2539C-38.1185 50.2826 -36.3086 50.7969 -33.8867 50.7969C-29.056 50.7969 -26.6406 48.694 -26.6406 44.4883V25.6797H-22.8125V44.4883ZM-12.1289 54H-15.9766V25.6797H-7.61719C-4.3099 25.6797 -1.79688 26.3958 -0.078125 27.8281C1.65365 29.2474 2.51953 31.3047 2.51953 34C2.51953 35.9141 2.05729 37.5221 1.13281 38.8242C0.208333 40.1133 -1.13281 41.0638 -2.89062 41.6758L3.55469 54H-0.878906L-6.89453 42.3594H-12.1289V54ZM-7.61719 38.9609C-3.52865 38.9609 -1.48438 37.3073 -1.48438 34C-1.48438 32.3464 -1.98568 31.1159 -2.98828 30.3086C-3.99089 29.4883 -5.53385 29.0781 -7.61719 29.0781H-12.1289V38.9609H-7.61719ZM26.4453 25.3672C28.7109 25.3542 31.0547 25.8555 33.4766 26.8711L32.5195 30.4062C30.0977 29.4688 28.0469 29 26.3672 29C24.6615 29 23.3073 29.332 22.3047 29.9961C21.3021 30.6602 20.8008 31.5846 20.8008 32.7695C20.8008 33.6289 20.9766 34.3451 21.3281 34.918C21.6927 35.4779 22.3047 35.9857 23.1641 36.4414C24.0234 36.8971 25.2214 37.3529 26.7578 37.8086C29.5052 38.6029 31.4583 39.651 32.6172 40.9531C33.776 42.2422 34.3555 43.9935 34.3555 46.207C34.3555 48.7461 33.5026 50.7383 31.7969 52.1836C30.0911 53.6289 27.7474 54.3516 24.7656 54.3516C22.2005 54.3516 19.349 53.6875 16.2109 52.3594L17.3633 48.8828C19.1211 49.5729 20.5208 50.0547 21.5625 50.3281C22.6042 50.5885 23.6719 50.7188 24.7656 50.7188C26.4974 50.7188 27.8646 50.3216 28.8672 49.5273C29.8698 48.7201 30.3711 47.6263 30.3711 46.2461C30.3711 45.3607 30.1823 44.625 29.8047 44.0391C29.4271 43.4531 28.776 42.9258 27.8516 42.457C26.9401 41.9883 25.6445 41.526 23.9648 41.0703C21.3997 40.3802 19.5638 39.4297 18.457 38.2188C17.3503 37.0078 16.7969 35.3737 16.7969 33.3164C16.7969 30.8034 17.6497 28.8503 19.3555 27.457C21.0742 26.0638 23.4375 25.3672 26.4453 25.3672ZM56.2891 29.0781H48.0078V54H44.1602V29.0781H35.3906V25.6797H56.2891V29.0781ZM60.918 45.7969L58.1055 54H54.2383L63.9844 25.6797H68.7891L78.9062 54H75.1562L72.2266 45.7969H60.918ZM66.3477 29.6445L62.0703 42.3984H71.0352L66.6016 29.6445H66.3477ZM86.2891 33.4336C86.8229 34.4492 87.3568 35.4909 87.8906 36.5586C88.4245 37.6263 88.7891 38.362 88.9844 38.7656H89.2188C89.401 38.362 89.8047 37.5482 90.4297 36.3242C91.0677 35.1003 91.569 34.1367 91.9336 33.4336L96.2109 25.6797H100.371L90.9766 42.0859V54H87.168V42.0859L77.8125 25.6797H82.0117L86.2891 33.4336Z" fill="#404040"/>
<path d="M558.789 -42.9141C558.581 -43.8516 558.301 -45.1341 557.949 -46.7617L557.07 -50.6484L556.191 -46.7617C555.84 -45.1341 555.56 -43.8516 555.352 -42.9141L551.23 -26H545.43L538.262 -54.3203H542.148L545.742 -39.8867L548.379 -29.5547L550.938 -39.8867L554.492 -54.3203H559.629L563.184 -39.8867L565.742 -29.5547L568.379 -39.8867L571.973 -54.3203H575.859L568.711 -26H562.91L558.789 -42.9141ZM584.277 -42.5234H595.957V-39.125H584.277V-29.3984H597.715V-26H580.43V-54.3203H597.285V-50.9219H584.277V-42.5234ZM619.59 -26H602.812V-54.3203H606.66V-29.3984H619.59V-26ZM635.391 -54.6328C636.836 -54.6328 638.268 -54.431 639.688 -54.0273C641.12 -53.6367 642.461 -53.0573 643.711 -52.2891L642.109 -49.1641C640.885 -49.8281 639.733 -50.3034 638.652 -50.5898C637.572 -50.8893 636.484 -51.0391 635.391 -51.0391C632.383 -51.0391 630.059 -50.1016 628.418 -48.2266C626.777 -46.3646 625.957 -43.7018 625.957 -40.2383C625.957 -36.7487 626.764 -34.0534 628.379 -32.1523C629.993 -30.2643 632.292 -29.3203 635.273 -29.3203C637.643 -29.3203 640.059 -29.8802 642.52 -31L643.926 -27.7188C642.624 -27.1068 641.191 -26.6185 639.629 -26.2539C638.066 -25.9023 636.562 -25.7266 635.117 -25.7266C630.846 -25.7266 627.585 -26.9701 625.332 -29.457C623.079 -31.957 621.953 -35.5508 621.953 -40.2383C621.953 -43.2201 622.487 -45.7917 623.555 -47.9531C624.622 -50.1146 626.159 -51.7682 628.164 -52.9141C630.182 -54.0599 632.591 -54.6328 635.391 -54.6328ZM659.57 -54.6328C663.646 -54.6328 666.803 -53.3763 669.043 -50.8633C671.283 -48.3633 672.402 -44.8346 672.402 -40.2773C672.402 -35.5638 671.296 -31.9375 669.082 -29.3984C666.868 -26.8724 663.698 -25.6094 659.57 -25.6094C655.417 -25.6094 652.227 -26.8659 650 -29.3789C647.786 -31.9049 646.68 -35.5378 646.68 -40.2773C646.68 -44.8607 647.799 -48.3958 650.039 -50.8828C652.279 -53.3828 655.456 -54.6328 659.57 -54.6328ZM659.57 -51.0391C656.693 -51.0391 654.492 -50.1146 652.969 -48.2656C651.445 -46.4297 650.684 -43.7669 650.684 -40.2773C650.684 -36.7096 651.452 -33.9688 652.988 -32.0547C654.525 -30.1536 656.719 -29.2031 659.57 -29.2031C662.422 -29.2031 664.603 -30.1602 666.113 -32.0742C667.637 -34.0013 668.398 -36.7357 668.398 -40.2773C668.398 -43.7409 667.637 -46.3971 666.113 -48.2461C664.603 -50.1081 662.422 -51.0391 659.57 -51.0391ZM702.012 -49.6719C701.803 -48.9557 701.348 -47.4648 700.645 -45.1992C699.954 -42.9336 699.368 -41.1237 698.887 -39.7695L694.336 -26.8008H690.488L685.938 -39.7695C685.404 -41.293 684.805 -43.1484 684.141 -45.3359C683.477 -47.5365 683.034 -48.9818 682.812 -49.6719L681.621 -39.7695L679.902 -26H676.25L679.863 -54.3203H684.609L689.727 -39.3594C689.883 -38.8516 690.072 -38.2786 690.293 -37.6406C690.514 -37.0026 690.742 -36.306 690.977 -35.5508C691.615 -33.5195 692.096 -32.0417 692.422 -31.1172C692.747 -32.0547 693.223 -33.5326 693.848 -35.5508C694.082 -36.293 694.31 -36.9831 694.531 -37.6211C694.753 -38.2721 694.941 -38.8516 695.098 -39.3594L700.215 -54.3203H704.98L708.574 -26H704.941L703.223 -39.7695L702.012 -49.6719ZM718.066 -42.5234H729.746V-39.125H718.066V-29.3984H731.504V-26H714.219V-54.3203H731.074V-50.9219H718.066V-42.5234ZM735.82 -54.8086H739.648L739.121 -33.3633H736.289L735.82 -54.8086ZM735.898 -29.6719H739.609V-26H735.898V-29.6719ZM589.141 -2.52344H600.82V0.875H589.141V10.6016H602.578V14H585.293V-14.3203H602.148V-10.9219H589.141V-2.52344ZM615.723 -1.27344C614.499 -3.03125 613.034 -5.35547 611.328 -8.24609V14H607.676V-14.3203H610.918L621.406 0.5625C622.448 2.03385 624.01 4.46224 626.094 7.84766V-14.3203H629.727V14H626.484L615.723 -1.27344ZM633.34 16.9688C635.046 16.2656 636.491 15.1654 637.676 13.668C638.861 12.1576 639.453 10.6536 639.453 9.15625V-10.9219H633.906V-14.3203H643.223V9.15625C643.223 10.5365 642.845 11.9297 642.09 13.3359C641.348 14.7422 640.326 15.9987 639.023 17.1055C637.734 18.2122 636.322 19.0326 634.785 19.5664L633.34 16.9688ZM661.621 -14.6328C665.697 -14.6328 668.854 -13.3763 671.094 -10.8633C673.333 -8.36328 674.453 -4.83464 674.453 -0.277344C674.453 4.4362 673.346 8.0625 671.133 10.6016C668.919 13.1276 665.749 14.3906 661.621 14.3906C657.467 14.3906 654.277 13.1341 652.051 10.6211C649.837 8.09505 648.73 4.46224 648.73 -0.277344C648.73 -4.86068 649.85 -8.39583 652.09 -10.8828C654.329 -13.3828 657.507 -14.6328 661.621 -14.6328ZM661.621 -11.0391C658.743 -11.0391 656.543 -10.1146 655.02 -8.26562C653.496 -6.42969 652.734 -3.76693 652.734 -0.277344C652.734 3.29036 653.503 6.03125 655.039 7.94531C656.576 9.84635 658.77 10.7969 661.621 10.7969C664.473 10.7969 666.654 9.83984 668.164 7.92578C669.688 5.9987 670.449 3.26432 670.449 -0.277344C670.449 -3.74089 669.688 -6.39714 668.164 -8.24609C666.654 -10.1081 664.473 -11.0391 661.621 -11.0391ZM684.121 -6.56641C684.655 -5.55078 685.189 -4.50911 685.723 -3.44141C686.257 -2.3737 686.621 -1.63802 686.816 -1.23438H687.051C687.233 -1.63802 687.637 -2.45182 688.262 -3.67578C688.9 -4.89974 689.401 -5.86328 689.766 -6.56641L694.043 -14.3203H698.203L688.809 2.08594V14H685V2.08594L675.645 -14.3203H679.844L684.121 -6.56641ZM548.086 33.4336C548.62 34.4492 549.154 35.4909 549.688 36.5586C550.221 37.6263 550.586 38.362 550.781 38.7656H551.016C551.198 38.362 551.602 37.5482 552.227 36.3242C552.865 35.1003 553.366 34.1367 553.73 33.4336L558.008 25.6797H562.168L552.773 42.0859V54H548.965V42.0859L539.609 25.6797H543.809L548.086 33.4336ZM577.188 25.3672C581.263 25.3672 584.421 26.6237 586.66 29.1367C588.9 31.6367 590.02 35.1654 590.02 39.7227C590.02 44.4362 588.913 48.0625 586.699 50.6016C584.486 53.1276 581.315 54.3906 577.188 54.3906C573.034 54.3906 569.844 53.1341 567.617 50.6211C565.404 48.0951 564.297 44.4622 564.297 39.7227C564.297 35.1393 565.417 31.6042 567.656 29.1172C569.896 26.6172 573.073 25.3672 577.188 25.3672ZM577.188 28.9609C574.31 28.9609 572.109 29.8854 570.586 31.7344C569.062 33.5703 568.301 36.2331 568.301 39.7227C568.301 43.2904 569.069 46.0312 570.605 47.9453C572.142 49.8464 574.336 50.7969 577.188 50.7969C580.039 50.7969 582.22 49.8398 583.73 47.9258C585.254 45.9987 586.016 43.2643 586.016 39.7227C586.016 36.2591 585.254 33.6029 583.73 31.7539C582.22 29.8919 580.039 28.9609 577.188 28.9609ZM617.188 44.4883C617.188 47.6003 616.211 50.0221 614.258 51.7539C612.318 53.4857 609.603 54.3516 606.113 54.3516C602.598 54.3516 599.876 53.4922 597.949 51.7734C596.035 50.0547 595.078 47.6263 595.078 44.4883V25.6797H598.906V44.4883C598.906 46.6237 599.499 48.2122 600.684 49.2539C601.882 50.2826 603.691 50.7969 606.113 50.7969C610.944 50.7969 613.359 48.694 613.359 44.4883V25.6797H617.188V44.4883ZM627.871 54H624.023V25.6797H632.383C635.69 25.6797 638.203 26.3958 639.922 27.8281C641.654 29.2474 642.52 31.3047 642.52 34C642.52 35.9141 642.057 37.5221 641.133 38.8242C640.208 40.1133 638.867 41.0638 637.109 41.6758L643.555 54H639.121L633.105 42.3594H627.871V54ZM632.383 38.9609C636.471 38.9609 638.516 37.3073 638.516 34C638.516 32.3464 638.014 31.1159 637.012 30.3086C636.009 29.4883 634.466 29.0781 632.383 29.0781H627.871V38.9609H632.383ZM666.445 25.3672C668.711 25.3542 671.055 25.8555 673.477 26.8711L672.52 30.4062C670.098 29.4688 668.047 29 666.367 29C664.661 29 663.307 29.332 662.305 29.9961C661.302 30.6602 660.801 31.5846 660.801 32.7695C660.801 33.6289 660.977 34.3451 661.328 34.918C661.693 35.4779 662.305 35.9857 663.164 36.4414C664.023 36.8971 665.221 37.3529 666.758 37.8086C669.505 38.6029 671.458 39.651 672.617 40.9531C673.776 42.2422 674.355 43.9935 674.355 46.207C674.355 48.7461 673.503 50.7383 671.797 52.1836C670.091 53.6289 667.747 54.3516 664.766 54.3516C662.201 54.3516 659.349 53.6875 656.211 52.3594L657.363 48.8828C659.121 49.5729 660.521 50.0547 661.562 50.3281C662.604 50.5885 663.672 50.7188 664.766 50.7188C666.497 50.7188 667.865 50.3216 668.867 49.5273C669.87 48.7201 670.371 47.6263 670.371 46.2461C670.371 45.3607 670.182 44.625 669.805 44.0391C669.427 43.4531 668.776 42.9258 667.852 42.457C666.94 41.9883 665.645 41.526 663.965 41.0703C661.4 40.3802 659.564 39.4297 658.457 38.2188C657.35 37.0078 656.797 35.3737 656.797 33.3164C656.797 30.8034 657.65 28.8503 659.355 27.457C661.074 26.0638 663.438 25.3672 666.445 25.3672ZM696.289 29.0781H688.008V54H684.16V29.0781H675.391V25.6797H696.289V29.0781ZM700.918 45.7969L698.105 54H694.238L703.984 25.6797H708.789L718.906 54H715.156L712.227 45.7969H700.918ZM706.348 29.6445L702.07 42.3984H711.035L706.602 29.6445H706.348ZM726.289 33.4336C726.823 34.4492 727.357 35.4909 727.891 36.5586C728.424 37.6263 728.789 38.362 728.984 38.7656H729.219C729.401 38.362 729.805 37.5482 730.43 36.3242C731.068 35.1003 731.569 34.1367 731.934 33.4336L736.211 25.6797H740.371L730.977 42.0859V54H727.168V42.0859L717.812 25.6797H722.012L726.289 33.4336Z" fill="#404040"/>
<path d="M-81.2109 517.086C-81.4193 516.148 -81.6992 514.866 -82.0508 513.238L-82.9297 509.352L-83.8086 513.238C-84.1602 514.866 -84.4401 516.148 -84.6484 517.086L-88.7695 534H-94.5703L-101.738 505.68H-97.8516L-94.2578 520.113L-91.6211 530.445L-89.0625 520.113L-85.5078 505.68H-80.3711L-76.8164 520.113L-74.2578 530.445L-71.6211 520.113L-68.0273 505.68H-64.1406L-71.2891 534H-77.0898L-81.2109 517.086ZM-55.7227 517.477H-44.043V520.875H-55.7227V530.602H-42.2852V534H-59.5703V505.68H-42.7148V509.078H-55.7227V517.477ZM-20.4102 534H-37.1875V505.68H-33.3398V530.602H-20.4102V534ZM-4.60938 505.367C-3.16406 505.367 -1.73177 505.569 -0.3125 505.973C1.11979 506.363 2.46094 506.943 3.71094 507.711L2.10938 510.836C0.885417 510.172 -0.266927 509.697 -1.34766 509.41C-2.42839 509.111 -3.51562 508.961 -4.60938 508.961C-7.61719 508.961 -9.94141 509.898 -11.582 511.773C-13.2227 513.635 -14.043 516.298 -14.043 519.762C-14.043 523.251 -13.2357 525.947 -11.6211 527.848C-10.0065 529.736 -7.70833 530.68 -4.72656 530.68C-2.35677 530.68 0.0585938 530.12 2.51953 529L3.92578 532.281C2.6237 532.893 1.19141 533.382 -0.371094 533.746C-1.93359 534.098 -3.4375 534.273 -4.88281 534.273C-9.15365 534.273 -12.4154 533.03 -14.668 530.543C-16.9206 528.043 -18.0469 524.449 -18.0469 519.762C-18.0469 516.78 -17.513 514.208 -16.4453 512.047C-15.3776 509.885 -13.8411 508.232 -11.8359 507.086C-9.81771 505.94 -7.40885 505.367 -4.60938 505.367ZM19.5703 505.367C23.6458 505.367 26.8034 506.624 29.043 509.137C31.2826 511.637 32.4023 515.165 32.4023 519.723C32.4023 524.436 31.2956 528.062 29.082 530.602C26.8685 533.128 23.6979 534.391 19.5703 534.391C15.4167 534.391 12.2266 533.134 10 530.621C7.78646 528.095 6.67969 524.462 6.67969 519.723C6.67969 515.139 7.79948 511.604 10.0391 509.117C12.2786 506.617 15.4557 505.367 19.5703 505.367ZM19.5703 508.961C16.6927 508.961 14.4922 509.885 12.9688 511.734C11.4453 513.57 10.6836 516.233 10.6836 519.723C10.6836 523.29 11.4518 526.031 12.9883 527.945C14.5247 529.846 16.7188 530.797 19.5703 530.797C22.4219 530.797 24.6029 529.84 26.1133 527.926C27.6367 525.999 28.3984 523.264 28.3984 519.723C28.3984 516.259 27.6367 513.603 26.1133 511.754C24.6029 509.892 22.4219 508.961 19.5703 508.961ZM62.0117 510.328C61.8034 511.044 61.3477 512.535 60.6445 514.801C59.9544 517.066 59.3685 518.876 58.8867 520.23L54.3359 533.199H50.4883L45.9375 520.23C45.4036 518.707 44.8047 516.852 44.1406 514.664C43.4766 512.464 43.0339 511.018 42.8125 510.328L41.6211 520.23L39.9023 534H36.25L39.8633 505.68H44.6094L49.7266 520.641C49.8828 521.148 50.0716 521.721 50.293 522.359C50.5143 522.997 50.7422 523.694 50.9766 524.449C51.6146 526.48 52.0964 527.958 52.4219 528.883C52.7474 527.945 53.2227 526.467 53.8477 524.449C54.082 523.707 54.3099 523.017 54.5312 522.379C54.7526 521.728 54.9414 521.148 55.0977 520.641L60.2148 505.68H64.9805L68.5742 534H64.9414L63.2227 520.23L62.0117 510.328ZM78.0664 517.477H89.7461V520.875H78.0664V530.602H91.5039V534H74.2188V505.68H91.0742V509.078H78.0664V517.477ZM95.8203 505.191H99.6484L99.1211 526.637H96.2891L95.8203 505.191ZM95.8984 530.328H99.6094V534H95.8984V530.328ZM-50.8594 557.477H-39.1797V560.875H-50.8594V570.602H-37.4219V574H-54.707V545.68H-37.8516V549.078H-50.8594V557.477ZM-24.2773 558.727C-25.5013 556.969 -26.9661 554.645 -28.6719 551.754V574H-32.3242V545.68H-29.082L-18.5938 560.562C-17.5521 562.034 -15.9896 564.462 -13.9062 567.848V545.68H-10.2734V574H-13.5156L-24.2773 558.727ZM-6.66016 576.969C-4.95443 576.266 -3.50911 575.165 -2.32422 573.668C-1.13932 572.158 -0.546875 570.654 -0.546875 569.156V549.078H-6.09375V545.68H3.22266V569.156C3.22266 570.536 2.84505 571.93 2.08984 573.336C1.34766 574.742 0.325521 575.999 -0.976562 577.105C-2.26562 578.212 -3.67839 579.033 -5.21484 579.566L-6.66016 576.969ZM21.6211 545.367C25.6966 545.367 28.8542 546.624 31.0938 549.137C33.3333 551.637 34.4531 555.165 34.4531 559.723C34.4531 564.436 33.3464 568.062 31.1328 570.602C28.9193 573.128 25.7487 574.391 21.6211 574.391C17.4674 574.391 14.2773 573.134 12.0508 570.621C9.83724 568.095 8.73047 564.462 8.73047 559.723C8.73047 555.139 9.85026 551.604 12.0898 549.117C14.3294 546.617 17.5065 545.367 21.6211 545.367ZM21.6211 548.961C18.7435 548.961 16.543 549.885 15.0195 551.734C13.4961 553.57 12.7344 556.233 12.7344 559.723C12.7344 563.29 13.5026 566.031 15.0391 567.945C16.5755 569.846 18.7695 570.797 21.6211 570.797C24.4727 570.797 26.6536 569.84 28.1641 567.926C29.6875 565.999 30.4492 563.264 30.4492 559.723C30.4492 556.259 29.6875 553.603 28.1641 551.754C26.6536 549.892 24.4727 548.961 21.6211 548.961ZM44.1211 553.434C44.6549 554.449 45.1888 555.491 45.7227 556.559C46.2565 557.626 46.6211 558.362 46.8164 558.766H47.0508C47.2331 558.362 47.6367 557.548 48.2617 556.324C48.8997 555.1 49.401 554.137 49.7656 553.434L54.043 545.68H58.2031L48.8086 562.086V574H45V562.086L35.6445 545.68H39.8438L44.1211 553.434ZM-91.9141 593.434C-91.3802 594.449 -90.8464 595.491 -90.3125 596.559C-89.7786 597.626 -89.4141 598.362 -89.2188 598.766H-88.9844C-88.8021 598.362 -88.3984 597.548 -87.7734 596.324C-87.1354 595.1 -86.6341 594.137 -86.2695 593.434L-81.9922 585.68H-77.832L-87.2266 602.086V614H-91.0352V602.086L-100.391 585.68H-96.1914L-91.9141 593.434ZM-62.8125 585.367C-58.737 585.367 -55.5794 586.624 -53.3398 589.137C-51.1003 591.637 -49.9805 595.165 -49.9805 599.723C-49.9805 604.436 -51.0872 608.062 -53.3008 610.602C-55.5143 613.128 -58.6849 614.391 -62.8125 614.391C-66.9661 614.391 -70.1562 613.134 -72.3828 610.621C-74.5964 608.095 -75.7031 604.462 -75.7031 599.723C-75.7031 595.139 -74.5833 591.604 -72.3438 589.117C-70.1042 586.617 -66.9271 585.367 -62.8125 585.367ZM-62.8125 588.961C-65.6901 588.961 -67.8906 589.885 -69.4141 591.734C-70.9375 593.57 -71.6992 596.233 -71.6992 599.723C-71.6992 603.29 -70.931 606.031 -69.3945 607.945C-67.8581 609.846 -65.6641 610.797 -62.8125 610.797C-59.9609 610.797 -57.7799 609.84 -56.2695 607.926C-54.7461 605.999 -53.9844 603.264 -53.9844 599.723C-53.9844 596.259 -54.7461 593.603 -56.2695 591.754C-57.7799 589.892 -59.9609 588.961 -62.8125 588.961ZM-22.8125 604.488C-22.8125 607.6 -23.7891 610.022 -25.7422 611.754C-27.6823 613.486 -30.3971 614.352 -33.8867 614.352C-37.4023 614.352 -40.1237 613.492 -42.0508 611.773C-43.9648 610.055 -44.9219 607.626 -44.9219 604.488V585.68H-41.0938V604.488C-41.0938 606.624 -40.5013 608.212 -39.3164 609.254C-38.1185 610.283 -36.3086 610.797 -33.8867 610.797C-29.056 610.797 -26.6406 608.694 -26.6406 604.488V585.68H-22.8125V604.488ZM-12.1289 614H-15.9766V585.68H-7.61719C-4.3099 585.68 -1.79688 586.396 -0.078125 587.828C1.65365 589.247 2.51953 591.305 2.51953 594C2.51953 595.914 2.05729 597.522 1.13281 598.824C0.208333 600.113 -1.13281 601.064 -2.89062 601.676L3.55469 614H-0.878906L-6.89453 602.359H-12.1289V614ZM-7.61719 598.961C-3.52865 598.961 -1.48438 597.307 -1.48438 594C-1.48438 592.346 -1.98568 591.116 -2.98828 590.309C-3.99089 589.488 -5.53385 589.078 -7.61719 589.078H-12.1289V598.961H-7.61719ZM26.4453 585.367C28.7109 585.354 31.0547 585.855 33.4766 586.871L32.5195 590.406C30.0977 589.469 28.0469 589 26.3672 589C24.6615 589 23.3073 589.332 22.3047 589.996C21.3021 590.66 20.8008 591.585 20.8008 592.77C20.8008 593.629 20.9766 594.345 21.3281 594.918C21.6927 595.478 22.3047 595.986 23.1641 596.441C24.0234 596.897 25.2214 597.353 26.7578 597.809C29.5052 598.603 31.4583 599.651 32.6172 600.953C33.776 602.242 34.3555 603.993 34.3555 606.207C34.3555 608.746 33.5026 610.738 31.7969 612.184C30.0911 613.629 27.7474 614.352 24.7656 614.352C22.2005 614.352 19.349 613.688 16.2109 612.359L17.3633 608.883C19.1211 609.573 20.5208 610.055 21.5625 610.328C22.6042 610.589 23.6719 610.719 24.7656 610.719C26.4974 610.719 27.8646 610.322 28.8672 609.527C29.8698 608.72 30.3711 607.626 30.3711 606.246C30.3711 605.361 30.1823 604.625 29.8047 604.039C29.4271 603.453 28.776 602.926 27.8516 602.457C26.9401 601.988 25.6445 601.526 23.9648 601.07C21.3997 600.38 19.5638 599.43 18.457 598.219C17.3503 597.008 16.7969 595.374 16.7969 593.316C16.7969 590.803 17.6497 588.85 19.3555 587.457C21.0742 586.064 23.4375 585.367 26.4453 585.367ZM56.2891 589.078H48.0078V614H44.1602V589.078H35.3906V585.68H56.2891V589.078ZM60.918 605.797L58.1055 614H54.2383L63.9844 585.68H68.7891L78.9062 614H75.1562L72.2266 605.797H60.918ZM66.3477 589.645L62.0703 602.398H71.0352L66.6016 589.645H66.3477ZM86.2891 593.434C86.8229 594.449 87.3568 595.491 87.8906 596.559C88.4245 597.626 88.7891 598.362 88.9844 598.766H89.2188C89.401 598.362 89.8047 597.548 90.4297 596.324C91.0677 595.1 91.569 594.137 91.9336 593.434L96.2109 585.68H100.371L90.9766 602.086V614H87.168V602.086L77.8125 585.68H82.0117L86.2891 593.434Z" fill="#404040"/>
<path d="M558.789 517.086C558.581 516.148 558.301 514.866 557.949 513.238L557.07 509.352L556.191 513.238C555.84 514.866 555.56 516.148 555.352 517.086L551.23 534H545.43L538.262 505.68H542.148L545.742 520.113L548.379 530.445L550.938 520.113L554.492 505.68H559.629L563.184 520.113L565.742 530.445L568.379 520.113L571.973 505.68H575.859L568.711 534H562.91L558.789 517.086ZM584.277 517.477H595.957V520.875H584.277V530.602H597.715V534H580.43V505.68H597.285V509.078H584.277V517.477ZM619.59 534H602.812V505.68H606.66V530.602H619.59V534ZM635.391 505.367C636.836 505.367 638.268 505.569 639.688 505.973C641.12 506.363 642.461 506.943 643.711 507.711L642.109 510.836C640.885 510.172 639.733 509.697 638.652 509.41C637.572 509.111 636.484 508.961 635.391 508.961C632.383 508.961 630.059 509.898 628.418 511.773C626.777 513.635 625.957 516.298 625.957 519.762C625.957 523.251 626.764 525.947 628.379 527.848C629.993 529.736 632.292 530.68 635.273 530.68C637.643 530.68 640.059 530.12 642.52 529L643.926 532.281C642.624 532.893 641.191 533.382 639.629 533.746C638.066 534.098 636.562 534.273 635.117 534.273C630.846 534.273 627.585 533.03 625.332 530.543C623.079 528.043 621.953 524.449 621.953 519.762C621.953 516.78 622.487 514.208 623.555 512.047C624.622 509.885 626.159 508.232 628.164 507.086C630.182 505.94 632.591 505.367 635.391 505.367ZM659.57 505.367C663.646 505.367 666.803 506.624 669.043 509.137C671.283 511.637 672.402 515.165 672.402 519.723C672.402 524.436 671.296 528.062 669.082 530.602C666.868 533.128 663.698 534.391 659.57 534.391C655.417 534.391 652.227 533.134 650 530.621C647.786 528.095 646.68 524.462 646.68 519.723C646.68 515.139 647.799 511.604 650.039 509.117C652.279 506.617 655.456 505.367 659.57 505.367ZM659.57 508.961C656.693 508.961 654.492 509.885 652.969 511.734C651.445 513.57 650.684 516.233 650.684 519.723C650.684 523.29 651.452 526.031 652.988 527.945C654.525 529.846 656.719 530.797 659.57 530.797C662.422 530.797 664.603 529.84 666.113 527.926C667.637 525.999 668.398 523.264 668.398 519.723C668.398 516.259 667.637 513.603 666.113 511.754C664.603 509.892 662.422 508.961 659.57 508.961ZM702.012 510.328C701.803 511.044 701.348 512.535 700.645 514.801C699.954 517.066 699.368 518.876 698.887 520.23L694.336 533.199H690.488L685.938 520.23C685.404 518.707 684.805 516.852 684.141 514.664C683.477 512.464 683.034 511.018 682.812 510.328L681.621 520.23L679.902 534H676.25L679.863 505.68H684.609L689.727 520.641C689.883 521.148 690.072 521.721 690.293 522.359C690.514 522.997 690.742 523.694 690.977 524.449C691.615 526.48 692.096 527.958 692.422 528.883C692.747 527.945 693.223 526.467 693.848 524.449C694.082 523.707 694.31 523.017 694.531 522.379C694.753 521.728 694.941 521.148 695.098 520.641L700.215 505.68H704.98L708.574 534H704.941L703.223 520.23L702.012 510.328ZM718.066 517.477H729.746V520.875H718.066V530.602H731.504V534H714.219V505.68H731.074V509.078H718.066V517.477ZM735.82 505.191H739.648L739.121 526.637H736.289L735.82 505.191ZM735.898 530.328H739.609V534H735.898V530.328ZM589.141 557.477H600.82V560.875H589.141V570.602H602.578V574H585.293V545.68H602.148V549.078H589.141V557.477ZM615.723 558.727C614.499 556.969 613.034 554.645 611.328 551.754V574H607.676V545.68H610.918L621.406 560.562C622.448 562.034 624.01 564.462 626.094 567.848V545.68H629.727V574H626.484L615.723 558.727ZM633.34 576.969C635.046 576.266 636.491 575.165 637.676 573.668C638.861 572.158 639.453 570.654 639.453 569.156V549.078H633.906V545.68H643.223V569.156C643.223 570.536 642.845 571.93 642.09 573.336C641.348 574.742 640.326 575.999 639.023 577.105C637.734 578.212 636.322 579.033 634.785 579.566L633.34 576.969ZM661.621 545.367C665.697 545.367 668.854 546.624 671.094 549.137C673.333 551.637 674.453 555.165 674.453 559.723C674.453 564.436 673.346 568.062 671.133 570.602C668.919 573.128 665.749 574.391 661.621 574.391C657.467 574.391 654.277 573.134 652.051 570.621C649.837 568.095 648.73 564.462 648.73 559.723C648.73 555.139 649.85 551.604 652.09 549.117C654.329 546.617 657.507 545.367 661.621 545.367ZM661.621 548.961C658.743 548.961 656.543 549.885 655.02 551.734C653.496 553.57 652.734 556.233 652.734 559.723C652.734 563.29 653.503 566.031 655.039 567.945C656.576 569.846 658.77 570.797 661.621 570.797C664.473 570.797 666.654 569.84 668.164 567.926C669.688 565.999 670.449 563.264 670.449 559.723C670.449 556.259 669.688 553.603 668.164 551.754C666.654 549.892 664.473 548.961 661.621 548.961ZM684.121 553.434C684.655 554.449 685.189 555.491 685.723 556.559C686.257 557.626 686.621 558.362 686.816 558.766H687.051C687.233 558.362 687.637 557.548 688.262 556.324C688.9 555.1 689.401 554.137 689.766 553.434L694.043 545.68H698.203L688.809 562.086V574H685V562.086L675.645 545.68H679.844L684.121 553.434ZM548.086 593.434C548.62 594.449 549.154 595.491 549.688 596.559C550.221 597.626 550.586 598.362 550.781 598.766H551.016C551.198 598.362 551.602 597.548 552.227 596.324C552.865 595.1 553.366 594.137 553.73 593.434L558.008 585.68H562.168L552.773 602.086V614H548.965V602.086L539.609 585.68H543.809L548.086 593.434ZM577.188 585.367C581.263 585.367 584.421 586.624 586.66 589.137C588.9 591.637 590.02 595.165 590.02 599.723C590.02 604.436 588.913 608.062 586.699 610.602C584.486 613.128 581.315 614.391 577.188 614.391C573.034 614.391 569.844 613.134 567.617 610.621C565.404 608.095 564.297 604.462 564.297 599.723C564.297 595.139 565.417 591.604 567.656 589.117C569.896 586.617 573.073 585.367 577.188 585.367ZM577.188 588.961C574.31 588.961 572.109 589.885 570.586 591.734C569.062 593.57 568.301 596.233 568.301 599.723C568.301 603.29 569.069 606.031 570.605 607.945C572.142 609.846 574.336 610.797 577.188 610.797C580.039 610.797 582.22 609.84 583.73 607.926C585.254 605.999 586.016 603.264 586.016 599.723C586.016 596.259 585.254 593.603 583.73 591.754C582.22 589.892 580.039 588.961 577.188 588.961ZM617.188 604.488C617.188 607.6 616.211 610.022 614.258 611.754C612.318 613.486 609.603 614.352 606.113 614.352C602.598 614.352 599.876 613.492 597.949 611.773C596.035 610.055 595.078 607.626 595.078 604.488V585.68H598.906V604.488C598.906 606.624 599.499 608.212 600.684 609.254C601.882 610.283 603.691 610.797 606.113 610.797C610.944 610.797 613.359 608.694 613.359 604.488V585.68H617.188V604.488ZM627.871 614H624.023V585.68H632.383C635.69 585.68 638.203 586.396 639.922 587.828C641.654 589.247 642.52 591.305 642.52 594C642.52 595.914 642.057 597.522 641.133 598.824C640.208 600.113 638.867 601.064 637.109 601.676L643.555 614H639.121L633.105 602.359H627.871V614ZM632.383 598.961C636.471 598.961 638.516 597.307 638.516 594C638.516 592.346 638.014 591.116 637.012 590.309C636.009 589.488 634.466 589.078 632.383 589.078H627.871V598.961H632.383ZM666.445 585.367C668.711 585.354 671.055 585.855 673.477 586.871L672.52 590.406C670.098 589.469 668.047 589 666.367 589C664.661 589 663.307 589.332 662.305 589.996C661.302 590.66 660.801 591.585 660.801 592.77C660.801 593.629 660.977 594.345 661.328 594.918C661.693 595.478 662.305 595.986 663.164 596.441C664.023 596.897 665.221 597.353 666.758 597.809C669.505 598.603 671.458 599.651 672.617 600.953C673.776 602.242 674.355 603.993 674.355 606.207C674.355 608.746 673.503 610.738 671.797 612.184C670.091 613.629 667.747 614.352 664.766 614.352C662.201 614.352 659.349 613.688 656.211 612.359L657.363 608.883C659.121 609.573 660.521 610.055 661.562 610.328C662.604 610.589 663.672 610.719 664.766 610.719C666.497 610.719 667.865 610.322 668.867 609.527C669.87 608.72 670.371 607.626 670.371 606.246C670.371 605.361 670.182 604.625 669.805 604.039C669.427 603.453 668.776 602.926 667.852 602.457C666.94 601.988 665.645 601.526 663.965 601.07C661.4 600.38 659.564 599.43 658.457 598.219C657.35 597.008 656.797 595.374 656.797 593.316C656.797 590.803 657.65 588.85 659.355 587.457C661.074 586.064 663.438 585.367 666.445 585.367ZM696.289 589.078H688.008V614H684.16V589.078H675.391V585.68H696.289V589.078ZM700.918 605.797L698.105 614H694.238L703.984 585.68H708.789L718.906 614H715.156L712.227 605.797H700.918ZM706.348 589.645L702.07 602.398H711.035L706.602 589.645H706.348ZM726.289 593.434C726.823 594.449 727.357 595.491 727.891 596.559C728.424 597.626 728.789 598.362 728.984 598.766H729.219C729.401 598.362 729.805 597.548 730.43 596.324C731.068 595.1 731.569 594.137 731.934 593.434L736.211 585.68H740.371L730.977 602.086V614H727.168V602.086L717.812 585.68H722.012L726.289 593.434Z" fill="#404040"/>
</g>
</svg>
