<svg width="398" height="80" viewBox="0 0 398 80" fill="none" xmlns="http://www.w3.org/2000/svg">
<path fill-rule="evenodd" clip-rule="evenodd" d="M361.6 12.7778C355.623 12.7778 337.194 15 337.194 40C337.194 66.6668 357.117 67.7779 361.102 67.7779C363.592 67.7779 372.558 67.2223 378.534 60.5556C383.017 55.5556 385.009 48.8889 385.009 40C385.507 14.4443 367.577 12.7777 361.6 12.7777V12.7778ZM369.071 57.2223C367.577 58.3334 365.585 60.0001 362.098 60.0001H361.6C358.113 60.0001 356.121 58.3334 354.627 57.2223C351.14 53.889 349.646 47.7778 349.646 38.8889C349.646 22.2222 357.117 19.4445 361.6 19.4445H362.098C366.581 19.4445 374.052 22.2222 374.052 38.8889C374.052 47.7778 372.558 53.889 369.071 57.2223ZM73.7146 76.1112C69.232 74.4446 62.757 68.889 59.2706 63.8889C54.7879 57.7778 43.3323 41.1111 43.3323 41.1111C41.34 38.8889 39.8458 36.111 37.8535 33.3333C32.8728 25.5555 27.394 17.2221 21.4171 12.2221V67.7778H28.3902V38.8888L34.367 47.2221C37.3554 51.6666 40.842 56.6666 43.3323 60C45.3246 62.2222 49.8072 68.3333 51.3014 69.4444C57.7764 76.1111 67.7378 80 77.6992 80C82.1819 80 86.1664 79.4445 90.151 77.7778V77.2223C88.6568 77.7778 86.6646 77.7778 85.1703 77.7778C81.6838 78.8889 77.6992 77.7778 73.7146 76.1111V76.1112ZM30.8805 16.6666C35.3632 22.7778 47.3168 39.4445 47.3168 39.4445C48.811 41.6667 50.8033 44.4445 52.2976 47.2223C57.2783 55.0001 62.757 63.3335 68.7339 68.3335V12.7778H61.7609V41.6668L55.784 33.3334C52.7956 28.3334 49.8072 23.889 46.8188 20.5556C45.3246 17.7778 39.8458 12.2222 38.3516 10.5556C32.3747 3.88886 21.9152 0 11.9537 0C7.96914 0 3.9846 0.555552 0 2.22221V2.77776C1.4942 2.22221 3.48647 2.22221 4.98074 2.22221C8.96534 2.22221 12.4518 3.33331 16.4364 4.44441C20.9191 6.11107 27.394 11.6667 30.8805 16.6667V16.6666ZM294.36 41.1111C288.882 35.5555 282.407 34.4444 277.924 31.1111C274.438 28.3334 274.936 24.4444 276.43 22.2222C280.414 16.6666 288.882 18.8889 290.874 19.4445C293.364 20 294.36 20.5556 296.851 22.2222V16.1111C286.889 12.7778 271.449 9.99993 265.472 21.1111C262.982 25.5556 262.484 33.3334 268.959 38.3334C275.434 43.889 286.889 46.6667 287.885 51.6668C288.882 54.4445 287.885 56.6668 286.391 58.3335C280.414 64.4446 270.951 60.5557 264.974 57.7779V64.4446C271.449 67.7779 279.916 68.3335 286.889 66.6668C291.87 65.5557 297.349 60.5557 298.345 54.4445C299.341 48.3334 297.847 44.4445 294.36 41.1111H294.36ZM330.221 41.1111C324.743 35.5555 318.268 34.4444 313.785 31.1111C310.299 28.3334 310.797 24.4444 312.291 22.2222C316.276 17.2222 324.245 19.4445 326.237 20C328.727 20.5556 329.723 21.1111 332.214 22.7778V16.1111C322.252 12.7778 306.812 9.99993 300.835 21.1111C298.843 25.5556 298.345 33.3334 304.82 38.3334C311.295 43.889 322.75 46.6667 323.747 51.6668C324.743 54.4445 323.747 56.6668 322.253 58.3335C316.276 64.4446 306.812 60.5557 300.835 57.7779V64.4446C307.31 67.7779 315.279 68.3335 322.751 66.6668C327.731 65.5557 333.21 60.5557 334.206 54.4445C335.202 48.3334 333.708 44.4445 330.222 41.1111H330.221ZM229.611 66.6668H260.99V60.0001H240.569V42.7778H257.005V36.6667H240.569V20.5555H260.99V14.4443H229.611V66.6668ZM139.958 41.1111C134.479 35.5555 128.004 34.4444 123.522 31.1111C120.035 28.3334 120.533 24.4444 122.028 22.2222C126.012 17.2222 133.981 19.4445 135.974 20C138.464 20.5556 139.46 21.1111 141.95 22.7778V16.1111C131.989 12.7778 116.549 9.99993 110.572 21.1111C108.58 25.5556 107.584 33.3334 114.557 38.3334C121.032 43.889 132.487 46.6667 133.483 51.6668C134.479 54.4445 133.483 56.6668 131.989 58.3335C126.012 64.4446 116.549 60.5557 110.572 57.7779V64.4446C117.047 67.7779 125.514 68.3335 132.487 66.6668C137.468 65.5557 142.947 60.5557 143.943 54.4445C144.441 48.3334 143.445 44.4445 139.958 41.1111H139.958ZM75.2088 66.6668H106.587V60.0001H86.1664V42.7778H102.603V36.6667H86.1664V20.5555H106.587V14.4443H75.2088V66.6668ZM169.344 13.8889H148.923V67.2224H159.383V47.7779C159.383 47.7779 175.819 48.889 180.8 41.6668C184.286 37.2223 184.785 29.4445 183.29 23.889C180.8 16.6667 175.321 13.889 169.344 13.889L169.344 13.8889ZM171.337 37.7778C168.348 41.1111 163.368 41.1111 159.383 40.5556V20.5556C159.383 20.5556 168.348 18.3334 171.835 23.8889C173.827 26.6666 173.827 33.8889 171.337 37.7778ZM219.152 41.1111C222.638 36.6667 223.136 29.4445 221.642 23.3333C219.65 17.2222 214.171 13.8889 208.194 13.8889H187.773V66.6668H198.232V47.2224H203.213L214.171 66.6668H226.125L214.171 45.0001C215.665 43.889 218.155 42.7779 219.152 41.1112V41.1111ZM210.684 37.7778C207.696 41.1111 202.715 40.5556 198.731 40.5556V21.1111C198.731 21.1111 207.198 18.8889 211.182 24.4444C212.677 27.2222 213.175 33.8889 210.684 37.7778ZM391.982 55.0001C388.496 55.0001 386.005 57.7779 386.005 61.6668C386.005 65.5557 388.994 68.3335 391.982 68.3335C394.971 68.3335 397.959 65.5557 397.959 61.6668C397.959 57.7779 394.971 55.0001 391.982 55.0001ZM391.982 67.2223C388.994 67.2223 386.503 64.4446 386.503 61.1112C386.503 57.7778 388.994 55 391.982 55C394.971 55 397.461 57.7778 397.461 61.1112C396.963 65 394.473 67.2223 391.982 67.2223ZM393.477 61.6668C393.477 61.6668 394.473 61.1112 394.473 60.0001C394.473 58.889 393.477 57.7779 392.48 57.7779H389.492V65.0002H390.488V62.2224H392.48C393.477 62.2224 393.975 62.778 393.975 63.8891V65.0002H394.971C394.473 64.4446 394.473 63.8891 394.473 62.778C394.473 61.6669 393.975 61.6669 393.477 61.6669V61.6668ZM391.982 61.1112H389.99V58.889H391.982C392.48 58.889 392.978 58.889 392.978 60.0001C393.476 60.5557 392.978 61.1112 391.982 61.1112Z" fill="#3F3F3F"/>
</svg>
