<svg width="353" height="80" viewBox="0 0 353 80" fill="none" xmlns="http://www.w3.org/2000/svg">
<path fill-rule="evenodd" clip-rule="evenodd" d="M0 80V0H20.5592V24.6722C27.3428 10.1869 43.4517 0 62.2443 0C77.8643 0 91.6303 7.03777 99.7284 17.7319C100.656 12.5519 103.342 8.51591 107.785 5.6239C113.495 1.87464 121.031 0 130.391 0C135.353 0 140.033 0.515524 144.432 1.54657C148.609 2.5255 150.457 3.37768 154.639 5.30647L155.328 5.6239V21.4084C151.49 19.7213 147.745 18.3622 144.095 17.3311C140.538 16.3001 136.523 15.2113 133.621 15.2113C128.192 15.2113 122.248 18.1371 122.248 20.949C122.248 21.9801 122.622 22.9643 123.371 23.9016C124.213 24.7452 125.758 25.6825 128.004 26.7135C130.345 27.7446 133.714 29.1974 138.114 31.0721C142.513 32.853 146.258 34.7745 149.347 36.8365C152.436 38.8049 154.776 41.2419 156.367 44.1476C157.959 47.0533 158.754 50.7557 158.754 55.2548C158.754 62.8471 156.086 68.8928 150.751 73.3919C145.509 77.7973 137.271 80 126.039 80C120.61 80 115.836 79.6719 111.717 79.0158C108.821 78.5438 105.902 77.222 102.958 75.8892L102.958 75.8892L102.958 75.8891L102.957 75.889L102.957 75.889L102.957 75.8889L102.957 75.8888C101.809 75.369 100.657 74.8475 99.5013 74.3741V62.5651C91.3744 73.0924 77.7192 80 62.2443 80C43.4517 80 27.3428 69.8131 20.5592 55.3278V80H0ZM107.36 40C107.36 39.8967 107.36 39.7934 107.359 39.6903C107.59 39.8664 107.826 40.0399 108.066 40.2109C111.062 42.273 114.853 44.2882 119.439 46.2566C124.12 48.2249 127.63 49.8184 129.97 51.0369C132.404 52.1617 133.995 53.1927 134.744 54.13C135.587 55.0674 136.008 56.1453 136.008 57.3638C136.008 59.051 135.212 60.3632 133.621 61.3005C132.03 62.2378 129.455 62.7065 125.898 62.7065C122.528 62.7065 118.41 62.191 113.542 61.1599C109.814 60.2983 106.195 59.1618 102.686 57.7502C105.678 52.4017 107.36 46.375 107.36 40ZM86.8012 40C86.8012 53.3793 75.8067 64.2254 62.2444 64.2254C48.682 64.2254 37.6875 53.3793 37.6875 40C37.6875 26.6207 48.682 15.7747 62.2444 15.7747C75.8067 15.7747 86.8012 26.6207 86.8012 40ZM289.462 63.9715H283.042V67.2849H287.123V76.0652C286.655 76.2585 286.135 76.4242 285.563 76.5622C284.991 76.7003 284.298 76.7693 283.484 76.7693C281.821 76.7693 280.478 76.2723 279.456 75.2783C278.434 74.2567 277.68 72.8485 277.195 71.0538C276.727 69.2314 276.493 67.1468 276.493 64.7998C276.493 61.0999 277.108 58.1869 278.338 56.0609C279.586 53.9348 281.318 52.8718 283.536 52.8718C284.42 52.8718 285.269 53.0375 286.083 53.3688C286.915 53.7001 287.66 54.1005 288.318 54.5699L289.202 51.3394C288.405 50.7871 287.538 50.3592 286.603 50.0554C285.685 49.7517 284.706 49.5999 283.666 49.5999C281.639 49.5999 279.906 50.2349 278.468 51.505C277.047 52.7475 275.956 54.5008 275.193 56.765C274.431 59.0291 274.05 61.7074 274.05 64.7998C274.05 67.9199 274.388 70.6258 275.064 72.9175C275.757 75.1817 276.762 76.935 278.078 78.1775C279.395 79.3924 281.015 79.9998 282.938 79.9998C284.238 79.9998 285.399 79.8756 286.421 79.6271C287.443 79.3786 288.457 78.992 289.462 78.4674V63.9715ZM210.434 79.5856L208.198 70.4325H200.843L198.634 79.5856H196.917H196.269H194.188L189.692 67.3677H186.002V79.5856H183.663V50.014H188.783C191.087 50.014 192.785 50.7181 193.876 52.1263C194.985 53.5068 195.54 55.6053 195.54 58.4216C195.54 59.9955 195.358 61.307 194.994 62.3562C194.63 63.4055 194.162 64.2476 193.591 64.8827C193.036 65.4901 192.447 65.9733 191.823 66.3323L196.521 78.5548L203.52 49.8898H205.626L212.851 79.5856H210.434ZM205.418 58.1731C205.366 57.9522 205.279 57.5519 205.158 56.9721C205.036 56.3922 204.915 55.7986 204.794 55.1911C204.69 54.5561 204.603 54.0729 204.534 53.7415C204.413 54.5975 204.274 55.4396 204.118 56.268C203.962 57.0687 203.832 57.7038 203.728 58.1731L201.623 67.1192H207.497L205.418 58.1731ZM173.795 79.5856H176.134V53.2859H181.904V50.014H168V53.2859H173.795V79.5856ZM186.002 53.2445H188.653C190.177 53.2445 191.304 53.6587 192.031 54.487C192.759 55.2878 193.123 56.6545 193.123 58.5873C193.123 60.4373 192.776 61.8454 192.083 62.8118C191.39 63.7506 190.29 64.22 188.783 64.22H186.002V53.2445ZM219.754 79.5856L226.382 50.014H223.913L219.754 68.9001C219.477 70.1426 219.243 71.3023 219.053 72.3791C218.862 73.456 218.706 74.4776 218.585 75.444C218.463 74.4776 218.307 73.4698 218.117 72.4205C217.926 71.3437 217.692 70.1978 217.415 68.9829L213.231 50.014H210.788L217.415 79.5856H219.754ZM238.223 79.5856H227.853V50.014H238.223V53.2859H230.192V62.5219H237.755V65.7524H230.192V76.3137H238.223V79.5856ZM241.255 50.014V79.5856H251.702V76.2723H243.594V50.014H241.255ZM271.577 79.5856L269.342 70.4325H261.987L259.778 79.5856H257.413L264.664 49.8898H266.769L273.994 79.5856H271.577ZM266.561 58.1731C266.509 57.9522 266.423 57.5519 266.301 56.9721C266.18 56.3922 266.059 55.7986 265.938 55.1911C265.834 54.5561 265.747 54.0729 265.678 53.7415C265.556 54.5975 265.418 55.4396 265.262 56.268C265.106 57.0687 264.976 57.7038 264.872 58.1731L262.767 67.1192H268.641L266.561 58.1731ZM303.224 79.5856H292.854V50.014H303.224V53.2859H295.193V62.5219H302.756V65.7524H295.193V76.3137H303.224V79.5856ZM318.237 79.5856H320.966V50.014H318.783V66.705C318.783 67.5886 318.792 68.555 318.809 69.6042C318.844 70.6534 318.87 71.6198 318.887 72.5034L318.965 74.4914H318.861L308.959 50.014H306.256V79.5856H308.413V63.0603C308.413 61.5417 308.387 60.0645 308.335 58.6287C308.283 57.1929 308.24 55.9919 308.205 55.0255H308.309L318.237 79.5856ZM332.915 52.8718C330.923 52.8718 329.355 53.9348 328.211 56.0609C327.068 58.1869 326.496 61.0999 326.496 64.7998C326.496 68.4721 327.024 71.3851 328.081 73.5388C329.155 75.6649 330.758 76.7279 332.889 76.7279C333.704 76.7279 334.475 76.6174 335.202 76.3966C335.93 76.1757 336.64 75.8996 337.333 75.5682V78.7987C336.64 79.2129 335.921 79.5166 335.176 79.7099C334.449 79.9032 333.574 79.9998 332.551 79.9998C330.663 79.9998 329.086 79.3786 327.821 78.1361C326.556 76.8936 325.603 75.1264 324.962 72.8347C324.339 70.543 324.027 67.8509 324.027 64.7584C324.027 61.7764 324.365 59.1533 325.04 56.8892C325.733 54.5975 326.747 52.8166 328.081 51.5464C329.415 50.2487 331.035 49.5999 332.941 49.5999C334.899 49.5999 336.606 50.1797 338.061 51.3394L337.125 54.487C336.554 54.0729 335.913 53.7001 335.202 53.3688C334.509 53.0375 333.747 52.8718 332.915 52.8718ZM350.012 50.014L345.178 64.5513L340.37 50.014H337.823L344.008 68.2789V79.5856H346.347V68.1132L352.533 50.014H350.012ZM169.087 18.3107C169.688 16.0699 171.991 14.7401 174.232 15.3406L193.325 20.4566L221.982 9.62705C224.309 9.47193 228.218 9.90626 225.239 12.8846L212.523 25.6007L234.004 31.3565L224.8 32.7998L172.057 23.4551C169.817 22.8547 168.487 20.5514 169.087 18.3107ZM233.046 29.7411L225.6 27.4143C226.996 26.3284 230.719 23.8775 234.442 22.7607C238.165 21.6438 238.165 23.3504 238.165 24.7465L233.046 29.7411Z" fill="#3F3F3F"/>
</svg>
