<svg width="200" height="80" viewBox="0 0 200 80" fill="none" xmlns="http://www.w3.org/2000/svg">
<path fill-rule="evenodd" clip-rule="evenodd" d="M62.9921 0H4.84546V19.3939H43.6101L62.9921 0Z" fill="#3F3F3F"/>
<path fill-rule="evenodd" clip-rule="evenodd" d="M28.3582 34.6548C30.3652 34.1989 32.4592 34.1832 34.4935 34.6237C37.4873 35.2718 40.1907 36.873 42.1987 39.1874C44.2068 41.5018 45.4115 44.4049 45.6324 47.4618C45.8534 50.5187 45.0786 53.565 43.4242 56.1444C41.7699 58.7238 39.3249 60.6975 36.4555 61.77C33.586 62.8424 30.4466 62.9558 27.5073 62.0933C24.5681 61.2307 21.9872 59.4386 20.1512 56.9853C18.3152 54.532 17.3229 51.5496 17.3229 48.4847L0 48.4847C0 55.2956 2.20514 61.9232 6.28516 67.375C10.3652 72.8267 16.1005 76.8092 22.6322 78.726C29.1639 80.6428 36.1404 80.3907 42.5169 78.0075C48.8934 75.6243 54.3267 71.2383 58.0031 65.5063C61.6795 59.7742 63.4011 53.0047 62.9102 46.2116C62.4192 39.4184 59.7421 32.9672 55.2797 27.8241C52.0754 24.131 48.0745 21.2552 43.6101 19.3938L28.3582 34.6548Z" fill="#3F3F3F"/>
<path fill-rule="evenodd" clip-rule="evenodd" d="M74.4871 34.5586C76.3529 34.1993 78.2836 34.2169 80.1632 34.6238C83.157 35.272 85.8603 36.8732 87.8684 39.1876C89.8765 41.502 91.0812 44.405 91.3021 47.462C91.5231 50.5189 90.7483 53.5652 89.0939 56.1446C87.4395 58.724 84.9946 60.6977 82.1251 61.7701C79.2557 62.8426 76.1163 62.956 73.177 62.0935C70.2378 61.2309 67.6569 59.4388 65.8209 56.9855C63.9848 54.5322 62.9925 51.5498 62.9925 48.4849L45.6697 48.4849C45.6697 55.2958 47.8748 61.9234 51.9548 67.3752C56.0349 72.8269 61.7702 76.8094 68.3019 78.7262C74.8335 80.643 81.81 80.3909 88.1865 78.0077C94.563 75.6245 99.9964 71.2385 103.673 65.5064C107.349 59.7744 109.071 53.0049 108.58 46.2117C108.089 39.4186 105.412 32.9674 100.949 27.8243C97.8063 24.2017 93.8967 21.3655 89.535 19.5017L74.4871 34.5586Z" fill="#3F3F3F"/>
<path fill-rule="evenodd" clip-rule="evenodd" d="M119.697 34.655C121.704 34.1992 123.798 34.1835 125.832 34.6239C128.826 35.2721 131.53 36.8733 133.538 39.1877C135.546 41.5021 136.75 44.4051 136.971 47.462C137.192 50.519 136.417 53.5652 134.763 56.1446C133.109 58.7241 130.664 60.6978 127.794 61.7702C124.925 62.8427 121.785 62.9561 118.846 62.0935C115.907 61.231 113.326 59.4389 111.49 56.9856C109.654 54.5323 108.662 51.5498 108.662 48.4849L91.3389 48.4849C91.3389 55.2958 93.544 61.9235 97.624 67.3752C101.704 72.827 107.439 76.8095 113.971 78.7263C120.503 80.6431 127.479 80.391 133.856 78.0078C140.232 75.6246 145.666 71.2385 149.342 65.5065C153.018 59.7745 154.74 53.005 154.249 46.2118C153.758 39.4187 151.081 32.9674 146.619 27.8243C143.414 24.1313 139.413 21.2554 134.949 19.394L119.697 34.655Z" fill="#3F3F3F"/>
<path fill-rule="evenodd" clip-rule="evenodd" d="M165.366 34.6548C167.373 34.1989 169.467 34.1832 171.501 34.6237C174.495 35.2718 177.198 36.873 179.206 39.1874C181.214 41.5018 182.419 44.4049 182.64 47.4618C182.861 50.5187 182.086 53.565 180.432 56.1444C178.777 58.7238 176.332 60.6975 173.463 61.77C170.593 62.8424 167.454 62.9558 164.515 62.0933C161.575 61.2307 158.995 59.4386 157.159 56.9853C155.322 54.532 154.33 51.5496 154.33 48.4847H137.007C137.007 55.2956 139.212 61.9232 143.292 67.375C147.373 72.8267 153.108 76.8092 159.64 78.726C166.171 80.6428 173.148 80.3907 179.524 78.0075C185.901 75.6243 191.334 71.2383 195.01 65.5063C198.687 59.7742 200.408 53.0047 199.918 46.2116C199.427 39.4184 196.749 32.9672 192.287 27.8241C189.083 24.131 185.082 21.2552 180.617 19.3938L165.366 34.6548Z" fill="#3F3F3F"/>
</svg>
