<svg width="564" height="80" viewBox="0 0 564 80" fill="none" xmlns="http://www.w3.org/2000/svg">
<path fill-rule="evenodd" clip-rule="evenodd" d="M0 78.4332H31.4007L49.3063 37.7742L40.8206 18.823H48.6708L75.3614 78.4322H75.3609L75.3613 78.4332H106.762L80.0714 18.824H57.6517L65.9414 0H34.5408L0 78.4332Z" fill="#3F3F3F"/>
<path fill-rule="evenodd" clip-rule="evenodd" d="M199.395 18.8223H171.134V57.1914C171.134 57.1914 171.133 57.1914 171.133 57.1913C171.133 57.2127 171.133 57.234 171.133 57.2552C171.133 64.186 164.455 65.8829 156.218 65.8829C147.98 65.8829 141.302 64.186 141.302 57.2552C141.302 57.2105 141.303 57.1657 141.303 57.1208V18.8233H113.043V68.1927L113.042 68.2355C113.042 74.7331 132.373 80.0005 156.218 80.0005C180.064 80.0005 199.394 74.7331 199.394 68.2355V68.2352L199.395 68.2352V18.8223Z" fill="#3F3F3F"/>
<path fill-rule="evenodd" clip-rule="evenodd" d="M287.316 18.8223H238.645V18.8238H223.954C217.327 18.8238 211.954 24.1964 211.954 30.8238V44.4717C211.954 51.0992 217.327 56.4717 223.954 56.4717H241.558C241.587 56.4709 241.616 56.4705 241.645 56.4705H263.906C265.562 56.4705 266.906 57.8137 266.906 59.4705V59.7452C266.906 61.402 265.562 62.7452 263.906 62.7452H241.645C241.631 62.7452 241.616 62.7451 241.602 62.7449H215.094V78.4315H262.196V78.4318H280.027C286.654 78.4318 292.027 73.0592 292.027 66.4318V52.7839C292.027 46.1565 286.654 40.7839 280.027 40.7839H263.971C263.949 40.7843 263.927 40.7846 263.906 40.7846H241.645C239.988 40.7846 238.645 39.4414 238.645 37.7846V37.5099C238.645 35.853 239.988 34.5099 241.645 34.5099H241.785V34.5089H287.316V18.8223Z" fill="#3F3F3F"/>
<path fill-rule="evenodd" clip-rule="evenodd" d="M381.518 18.8228H293.596V34.5094H323.427V78.432H351.687V34.5094H381.518V18.8228Z" fill="#3F3F3F"/>
<path fill-rule="evenodd" clip-rule="evenodd" d="M463.161 18.8228H389.369V28.2345H389.368V40.7832V56.4698V62.7452V69.0197V78.4318H463.16V62.7452H417.629V56.4698H463.16V40.7832H417.629V34.5094H463.161V18.8228Z" fill="#3F3F3F"/>
<path d="M477.291 18.8228V78.432H505.551V51.7647L521.251 64.314L535.382 51.7647V78.432H563.642V18.8228H546.372L521.251 43.9214L494.561 18.8228H477.291Z" fill="#3F3F3F"/>
</svg>
